<svg width="26" height="22" viewBox="0 0 26 22" fill="none" xmlns="http://www.w3.org/2000/svg">
<path d="M8.5922 21.539C9.62543 21.539 10.463 20.7524 10.463 19.7821C10.463 18.8117 9.62543 18.0251 8.5922 18.0251C7.55897 18.0251 6.72136 18.8117 6.72136 19.7821C6.72136 20.7524 7.55897 21.539 8.5922 21.539Z" fill="white"/>
<path d="M21.6873 21.539C22.7205 21.539 23.5581 20.7524 23.5581 19.7821C23.5581 18.8117 22.7205 18.0251 21.6873 18.0251C20.654 18.0251 19.8164 18.8117 19.8164 19.7821C19.8164 20.7524 20.654 21.539 21.6873 21.539Z" fill="white"/>
<path d="M25.0077 3.57301C24.8763 3.42205 24.7107 3.30046 24.5231 3.21708C24.3354 3.13369 24.1303 3.09061 23.9227 3.09094H6.13033L5.77197 1.18134C5.73376 0.977935 5.62046 0.793677 5.45196 0.660935C5.28347 0.528192 5.07056 0.455454 4.85064 0.455498H1.10919C0.861117 0.455498 0.623204 0.548052 0.447789 0.712799C0.272375 0.877546 0.173828 1.10099 0.173828 1.33398C0.173828 1.56697 0.272375 1.79041 0.447789 1.95516C0.623204 2.11991 0.861117 2.21246 1.10919 2.21246H4.06611L6.7354 16.4208C6.77361 16.6242 6.88691 16.8085 7.0554 16.9412C7.2239 17.0739 7.4368 17.1467 7.65673 17.1466H22.6225C22.8706 17.1466 23.1085 17.0541 23.2839 16.8893C23.4593 16.7246 23.5579 16.5011 23.5579 16.2682C23.5579 16.0352 23.4593 15.8117 23.2839 15.647C23.1085 15.4822 22.8706 15.3897 22.6225 15.3897H8.44126L8.11155 13.6327H22.239C22.5634 13.6323 22.8777 13.5267 23.1287 13.3337C23.3797 13.1407 23.5519 12.8722 23.6164 12.5736L25.3 4.66727C25.3406 4.47592 25.3354 4.27851 25.2848 4.08927C25.2343 3.90004 25.1396 3.7237 25.0077 3.57301Z" fill="white"/>
</svg>
